# xmcd CD database file
#
# Track frame offsets:
#	150
#	20587
#	43677
#	64156
#	82169
#	96568
#	116226
#	138890
#	162288
#
# Disc length: 2438 seconds
#
# Revision: 0
# Processed by: cddbd v1.5.1PL0 Copyright (c) Steve Scherf et al.
# Submitted via: CDex 1.51
#
DISCID=7f098409
DTITLE=Azuquita - LLego Y Dijo
DYEAR=1979
DGENRE=Salsa
TTITLE0=Yo no se nada
TTITLE1=Amor genuino
TTITLE2=Mira mi amor
TTITLE3=Mil gracias
TTITLE4=La justicia
TTITLE5=Ganas
TTITLE6=Milonga Espanola
TTITLE7=La LLorona
TTITLE8=Montmatre
EXTD=YEAR: 1979
EXTT0=
EXTT1=
EXTT2=
EXTT3=
EXTT4=
EXTT5=
EXTT6=
EXTT7=
EXTT8=
PLAYORDER=
